<svg xmlns="http://www.w3.org/2000/svg" viewBox="0 0 1024 1024" width="1024" height="1024" role="img" aria-label="Althia spiral symbol">
  <path d="M 492.30,668.54 L 485.97,668.97 L 479.62,669.12 L 473.27,669.02 L 466.91,668.66 L 460.57,668.05 L 454.24,667.19 L 447.93,666.09 L 441.65,664.75 L 435.41,663.18 L 429.22,661.39 L 423.08,659.37 L 417.00,657.13 L 410.99,654.68 L 405.05,652.03 L 399.20,649.17 L 393.44,646.12 L 387.78,642.87 L 382.23,639.43 L 376.79,635.82 L 371.47,632.02 L 366.28,628.05 L 361.23,623.92 L 356.33,619.62 L 351.57,615.16 L 346.98,610.56 L 342.55,605.80 L 338.30,600.90 L 334.23,595.86 L 330.36,590.69 L 326.68,585.39 L 323.20,579.96 L 319.94,574.42 L 316.89,568.77 L 314.04,563.02 L 311.41,557.16 L 308.98,551.22 L 306.75,545.19 L 304.74,539.09 L 302.92,532.92 L 301.31,526.68 L 299.90,520.39 L 298.70,514.05 L 297.69,507.66 L 296.89,501.25 L 296.28,494.80 L 295.87,488.33 L 295.66,481.85 L 295.64,475.35 L 295.82,468.86 L 296.20,462.38 L 296.76,455.90 L 297.52,449.45 L 298.48,443.02 L 299.62,436.63 L 300.95,430.27 L 302.47,423.96 L 304.18,417.71 L 306.08,411.52 L 308.16,405.39 L 310.43,399.34 L 312.88,393.37 L 315.52,387.49 L 318.34,381.71 L 321.34,376.02 L 324.52,370.45 L 327.87,364.98 L 331.39,359.63 L 335.08,354.39 L 338.93,349.27 L 342.94,344.27 L 347.09,339.40 L 351.40,334.65 L 355.84,330.03 L 360.42,325.55 L 365.13,321.20 L 369.98,316.99 L 374.94,312.92 L 380.02,308.99 L 385.22,305.21 L 390.52,301.58 L 395.93,298.10 L 401.44,294.77 L 407.04,291.61 L 412.74,288.60 L 418.52,285.76 L 424.38,283.09 L 430.31,280.58 L 436.32,278.25 L 442.39,276.09 L 448.53,274.11 L 454.72,272.30 L 460.97,270.68 L 467.26,269.25 L 473.60,268.01 L 479.97,266.95 L 486.38,266.08 L 492.81,265.40 L 499.27,264.89 L 505.74,264.58 L 512.22,264.44 L 518.70,264.49 L 525.19,264.71 L 531.67,265.12 L 538.13,265.70 L 544.58,266.46 L 551.01,267.39 L 557.41,268.50 L 563.78,269.78 L 570.10,271.24 L 576.39,272.86 L 582.62,274.66 L 588.80,276.63 L 594.91,278.76 L 600.96,281.06 L 606.94,283.53 L 612.84,286.16 L 618.66,288.96 L 624.39,291.91 L 630.02,295.04 L 635.56,298.32 L 640.99,301.76 L 646.31,305.35 L 651.52,309.11 L 656.60,313.02 L 661.56,317.09 L 666.38,321.31 L 671.07,325.68 L 675.63,330.20 L 680.04,334.86 L 684.31,339.65 L 688.43,344.57 L 692.41,349.61 L 696.24,354.78 L 699.91,360.05 L 703.43,365.44 L 706.79,370.92 L 710.00,376.51 L 713.04,382.19 L 715.91,387.95 L 718.62,393.80 L 721.17,399.72 L 723.54,405.72 L 725.73,411.78 L 727.75,417.90 L 729.59,424.08 L 731.25,430.31 L 732.73,436.58 L 734.02,442.89 L 735.12,449.24 L 736.04,455.62 L 736.76,462.02 L 737.28,468.44 L 737.61,474.87 L 737.73,481.31 L 737.66,487.76 L 737.38,494.20 L 736.89,500.64 L 736.20,507.06 L 735.30,513.46 L 734.22,519.85 L 732.95,526.20 L 731.51,532.53 L 729.89,538.81 L 728.10,545.06 L 726.16,551.26 L 724.07,557.41 L 721.83,563.50 L 719.45,569.53 L 716.94,575.49 L 714.30,581.38 L 711.55,587.20 L 708.68,592.93 L 705.71,598.58 L 702.61,604.15 L 699.32,609.66 L 695.75,615.15 L 691.84,620.62 L 687.87,625.72 L 684.35,629.84 L 681.83,632.32 L 680.68,632.74 L 680.83,631.32 L 682.10,628.43 L 684.31,624.42 L 687.23,619.58 L 690.55,614.17 L 693.97,608.42 L 697.23,602.55 L 700.28,596.60 L 703.12,590.57 L 705.75,584.47 L 708.16,578.32 L 710.37,572.11 L 712.38,565.85 L 714.17,559.54 L 715.76,553.20 L 717.13,546.82 L 718.31,540.42 L 719.28,533.99 L 720.04,527.55 L 720.60,521.10 L 720.95,514.64 L 721.10,508.19 L 721.05,501.75 L 720.79,495.31 L 720.34,488.90 L 719.68,482.51 L 718.82,476.15 L 717.77,469.82 L 716.51,463.54 L 715.06,457.31 L 713.40,451.13 L 711.55,445.01 L 709.50,438.95 L 707.26,432.96 L 704.82,427.05 L 702.18,421.22 L 699.35,415.48 L 696.33,409.83 L 693.11,404.28 L 689.70,398.84 L 686.10,393.50 L 682.32,388.28 L 678.37,383.18 L 674.25,378.20 L 669.96,373.35 L 665.52,368.63 L 660.92,364.05 L 656.18,359.61 L 651.31,355.31 L 646.29,351.17 L 641.15,347.18 L 635.89,343.35 L 630.51,339.69 L 625.02,336.19 L 619.43,332.87 L 613.74,329.73 L 607.96,326.77 L 602.09,324.00 L 596.14,321.42 L 590.11,319.03 L 584.02,316.85 L 577.86,314.88 L 571.65,313.11 L 565.39,311.56 L 559.08,310.23 L 552.73,309.12 L 546.35,308.25 L 539.94,307.60 L 533.51,307.20 L 527.07,307.03 L 520.62,307.11 L 514.17,307.41 L 507.74,307.95 L 501.32,308.72 L 494.93,309.72 L 488.58,310.94 L 482.27,312.38 L 476.02,314.04 L 469.83,315.92 L 463.72,318.00 L 457.68,320.30 L 451.73,322.81 L 445.88,325.52 L 440.13,328.43 L 434.50,331.54 L 428.99,334.84 L 423.61,338.34 L 418.37,342.03 L 413.28,345.91 L 408.35,349.97 L 403.58,354.21 L 398.99,358.64 L 394.58,363.24 L 390.36,368.01 L 386.34,372.95 L 382.53,378.07 L 378.94,383.35 L 375.58,388.79 L 372.45,394.39 L 369.56,400.14 L 366.92,406.05 L 364.52,412.09 L 362.38,418.25 L 360.48,424.52 L 358.84,430.88 L 357.44,437.32 L 356.29,443.83 L 355.38,450.39 L 354.73,456.99 L 354.33,463.61 L 354.17,470.24 L 354.27,476.86 L 354.61,483.47 L 355.21,490.05 L 356.06,496.58 L 357.15,503.05 L 358.50,509.45 L 360.09,515.76 L 361.94,521.97 L 364.04,528.07 L 366.39,534.04 L 368.99,539.86 L 371.84,545.53 L 374.95,551.02 L 378.30,556.33 L 381.91,561.44 L 385.77,566.34 L 389.88,571.02 L 394.25,575.45 L 398.86,579.63 L 403.73,583.54 L 408.85,587.17 L 414.21,590.51 L 419.79,593.56 L 425.56,596.31 L 431.50,598.75 L 437.59,600.89 L 443.80,602.71 L 450.12,604.21 L 456.53,605.40 L 462.99,606.25 L 469.49,606.77 L 476.01,606.96 L 482.53,606.80 L 489.01,606.30 L 495.44,605.44 L 501.81,604.23 L 508.07,602.66 L 514.23,600.73 L 520.25,598.45 L 526.12,595.82 L 531.84,592.85 L 537.37,589.57 L 542.72,585.96 L 547.85,582.06 L 552.76,577.85 L 557.44,573.36 L 561.85,568.59 L 566.00,563.56 L 569.86,558.26 L 573.42,552.72 L 576.66,546.94 L 579.57,540.93 L 582.13,534.72 L 584.32,528.36 L 586.14,521.90 L 587.55,515.36 L 588.54,508.81 L 589.10,502.27 L 589.22,495.80 L 588.86,489.44 L 588.02,483.23 L 586.68,477.21 L 584.82,471.42 L 582.42,465.92 L 579.47,460.74 L 575.96,455.92 L 571.85,451.52 L 567.16,447.57 L 561.93,444.09 L 556.26,441.12 L 550.24,438.67 L 543.97,436.77 L 537.52,435.44 L 530.99,434.70 L 524.48,434.58 L 518.07,435.09 L 511.85,436.27 L 505.91,438.13 L 500.36,440.70 L 495.26,444.00 L 490.73,448.05 L 486.84,452.87 L 483.68,458.49 L 481.33,464.77 L 479.82,471.52 L 479.19,478.52 L 479.50,485.57 L 480.78,492.45 L 483.08,498.97 L 486.45,504.91 L 490.91,510.07 L 496.25,514.41 L 502.04,518.03 L 507.82,521.06 L 513.15,523.60 L 517.57,525.76 L 520.63,527.66 L 521.90,529.41 L 521.03,531.09 L 518.20,532.64 L 513.77,533.95 L 508.09,534.92 L 501.51,535.44 L 494.39,535.41 L 487.07,534.72 L 479.90,533.25 L 473.23,530.92 L 467.17,527.75 L 461.74,523.85 L 456.91,519.31 L 452.67,514.25 L 449.03,508.77 L 445.96,502.97 L 443.47,496.97 L 441.53,490.84 L 440.14,484.59 L 439.28,478.28 L 438.94,471.93 L 439.11,465.57 L 439.76,459.25 L 440.89,452.99 L 442.48,446.82 L 444.52,440.79 L 446.99,434.92 L 449.89,429.25 L 453.19,423.80 L 456.88,418.63 L 460.96,413.75 L 465.39,409.20 L 470.18,405.01 L 475.29,401.20 L 480.70,397.76 L 486.36,394.70 L 492.26,392.02 L 498.35,389.71 L 504.62,387.78 L 511.02,386.23 L 517.52,385.06 L 524.09,384.27 L 530.71,383.86 L 537.34,383.83 L 543.94,384.19 L 550.50,384.92 L 556.96,386.04 L 563.32,387.55 L 569.52,389.43 L 575.56,391.70 L 581.42,394.33 L 587.09,397.30 L 592.55,400.60 L 597.81,404.21 L 602.84,408.12 L 607.64,412.31 L 612.20,416.76 L 616.50,421.45 L 620.53,426.38 L 624.29,431.51 L 627.77,436.85 L 630.95,442.36 L 633.82,448.04 L 636.37,453.86 L 638.61,459.82 L 640.54,465.89 L 642.15,472.06 L 643.46,478.33 L 644.48,484.67 L 645.19,491.07 L 645.61,497.51 L 645.75,503.98 L 645.60,510.47 L 645.16,516.96 L 644.45,523.44 L 643.47,529.89 L 642.22,536.30 L 640.70,542.66 L 638.92,548.94 L 636.89,555.13 L 634.60,561.23 L 632.06,567.22 L 629.29,573.10 L 626.28,578.86 L 623.05,584.50 L 619.61,590.00 L 615.96,595.38 L 612.10,600.61 L 608.06,605.69 L 603.83,610.62 L 599.42,615.40 L 594.85,620.01 L 590.11,624.45 L 585.22,628.71 L 580.18,632.80 L 575.00,636.70 L 569.69,640.40 L 564.26,643.91 L 558.72,647.22 L 553.06,650.32 L 547.31,653.20 L 541.46,655.86 L 535.53,658.30 L 529.52,660.50 L 523.45,662.47 L 517.31,664.19 L 511.12,665.67 L 504.88,666.89 L 498.60,667.85 L 492.30,668.54 Z" fill="#F2F2F2"/>
</svg>
